<svg width="414" height="91" viewBox="0 0 414 91" fill="none" xmlns="http://www.w3.org/2000/svg">
<g clip-path="url(#clip0_844_127454)">
<rect width="414" height="91" fill="#B359F3"/>
<path d="M85.5 8.5L75.5 0.5L54 -31C150.833 -30.8333 345.4 -29.7 349 -26.5C352.6 -23.3 338.833 -1.83333 331.5 8.5L301 19L307 0.5L301 -14.5C289.333 1.16667 266.9 31 270.5 25C274.1 19 264.333 -11.8333 259 -26.5L217.5 34L202 15.5L194.5 37C192.833 36.6667 188.8 33.8 186 25C183.2 16.2 184.833 -9.33333 186 -21L158 48L131 -17L121.5 40.5L98 -14.5L85.5 8.5Z" fill="#B662F3"/>
<path d="M103.5 52.5C118 52.5 123.77 60.0807 129 63.5L157 86.5C157 86.5 153.402 72.4803 157 62.5C159.094 56.6912 167 49.5 167 49.5C167 49.5 173 64.5 175.5 69C178 73.5 178.5 89.5 178.5 89.5L209.5 60L219 91.5H53.5L24 18L103.5 77C119 77 108.5 66 103.5 52.5Z" fill="#B662F3"/>
<rect width="49" height="18" transform="translate(183 51)" fill="black"/>
<path d="M188.575 56.05C188.579 56.3931 188.51 56.7108 188.369 57.0033C188.228 57.2958 188.01 57.536 187.714 57.7237C187.421 57.9115 187.08 58.0036 186.69 58H185.515V54.2083H186.723C187.304 54.2083 187.757 54.3835 188.082 54.7337C188.411 55.084 188.575 55.5228 188.575 56.05ZM188.088 56.0771C188.088 55.6618 187.965 55.3169 187.719 55.0425C187.477 54.7644 187.136 54.6254 186.695 54.6254H185.98V57.5829H186.685C187.125 57.5829 187.468 57.4367 187.714 57.1442C187.963 56.8517 188.088 56.496 188.088 56.0771ZM190.524 54.0404L189.911 54.7175H189.543L190.155 53.7642L190.524 54.0404ZM189.933 55.2592V58H189.484V55.2592H189.933ZM193.069 56.0825V58H192.631V57.5558C192.425 57.8917 192.102 58.0596 191.661 58.0596C191.405 58.0596 191.195 57.9892 191.033 57.8483C190.87 57.7039 190.789 57.5089 190.789 57.2633C190.789 56.9817 190.872 56.7867 191.038 56.6783C191.212 56.5664 191.405 56.4924 191.618 56.4562L192.159 56.3642C192.333 56.3317 192.454 56.2919 192.522 56.245C192.591 56.1944 192.625 56.1132 192.625 56.0012C192.625 55.7376 192.439 55.6058 192.067 55.6058C191.652 55.6058 191.407 55.7665 191.331 56.0879H190.876C190.915 55.8135 191.045 55.5986 191.266 55.4433C191.486 55.2881 191.76 55.2104 192.089 55.2104C192.743 55.2104 193.069 55.5011 193.069 56.0825ZM192.154 56.7L191.824 56.7542C191.621 56.7867 191.473 56.8354 191.379 56.9004C191.289 56.9654 191.244 57.0737 191.244 57.2254C191.244 57.5143 191.414 57.6587 191.753 57.6587C191.995 57.6587 192.199 57.5847 192.365 57.4367C192.535 57.2886 192.62 57.0846 192.62 56.8246V56.5754C192.512 56.626 192.356 56.6675 192.154 56.7ZM196.134 54.2083V58H195.668V54.2083H196.134ZM199.574 56.1421V58H199.125V56.1854C199.125 56.0157 199.072 55.8785 198.968 55.7737C198.863 55.669 198.717 55.6167 198.529 55.6167C198.283 55.6167 198.087 55.7051 197.939 55.8821C197.794 56.0554 197.722 56.2937 197.722 56.5971V58H197.272V55.2592H197.717V55.7358C197.901 55.3856 198.199 55.2104 198.61 55.2104C198.903 55.2104 199.136 55.2935 199.309 55.4596C199.486 55.6257 199.574 55.8532 199.574 56.1421ZM201.935 57.5992V58H201.54C201.302 58 201.114 57.9512 200.977 57.8537C200.843 57.7526 200.776 57.5576 200.776 57.2687V55.66H200.251V55.2592H200.776V54.5279L201.226 54.4033V55.2592H201.87V55.66H201.226V57.2146C201.226 57.3518 201.251 57.4511 201.302 57.5125C201.356 57.5703 201.451 57.5992 201.589 57.5992H201.935ZM205.034 56.7433H202.997C203.005 57.0322 203.086 57.2579 203.241 57.4204C203.396 57.5793 203.6 57.6587 203.853 57.6587C204.027 57.6587 204.176 57.619 204.303 57.5396C204.433 57.4565 204.521 57.3446 204.568 57.2037H205.012C204.94 57.4854 204.796 57.6985 204.579 57.8429C204.359 57.9874 204.11 58.0596 203.832 58.0596C203.47 58.0596 203.167 57.935 202.922 57.6858C202.68 57.4367 202.559 57.0846 202.559 56.6296C202.559 56.1746 202.68 55.8243 202.922 55.5787C203.167 55.3332 203.472 55.2104 203.837 55.2104C204.187 55.2104 204.474 55.326 204.698 55.5571C204.922 55.7846 205.034 56.1096 205.034 56.5321V56.7433ZM203.008 56.3804H204.585C204.585 56.1457 204.514 55.9579 204.373 55.8171C204.236 55.6726 204.054 55.6004 203.826 55.6004C203.602 55.6004 203.416 55.6672 203.268 55.8008C203.124 55.9308 203.037 56.124 203.008 56.3804ZM207.313 55.2321V55.66H207.188C206.914 55.66 206.704 55.7376 206.56 55.8929C206.419 56.0482 206.348 56.2757 206.348 56.5754V58H205.899V55.2592H206.343V55.7358C206.48 55.4 206.76 55.2321 207.183 55.2321H207.313ZM210.346 56.1421V58H209.897V56.1854C209.897 56.0157 209.844 55.8785 209.74 55.7737C209.635 55.669 209.489 55.6167 209.301 55.6167C209.055 55.6167 208.859 55.7051 208.711 55.8821C208.566 56.0554 208.494 56.2937 208.494 56.5971V58H208.044V55.2592H208.488V55.7358C208.673 55.3856 208.971 55.2104 209.382 55.2104C209.675 55.2104 209.908 55.2935 210.081 55.4596C210.258 55.6257 210.346 55.8532 210.346 56.1421ZM213.466 56.0825V58H213.027V57.5558C212.821 57.8917 212.498 58.0596 212.057 58.0596C211.801 58.0596 211.591 57.9892 211.429 57.8483C211.266 57.7039 211.185 57.5089 211.185 57.2633C211.185 56.9817 211.268 56.7867 211.434 56.6783C211.608 56.5664 211.801 56.4924 212.014 56.4562L212.556 56.3642C212.729 56.3317 212.85 56.2919 212.918 56.245C212.987 56.1944 213.021 56.1132 213.021 56.0012C213.021 55.7376 212.835 55.6058 212.463 55.6058C212.048 55.6058 211.803 55.7665 211.727 56.0879H211.272C211.312 55.8135 211.442 55.5986 211.662 55.4433C211.882 55.2881 212.157 55.2104 212.485 55.2104C213.139 55.2104 213.466 55.5011 213.466 56.0825ZM212.55 56.7L212.22 56.7542C212.018 56.7867 211.869 56.8354 211.776 56.9004C211.685 56.9654 211.64 57.0737 211.64 57.2254C211.64 57.5143 211.81 57.6587 212.149 57.6587C212.391 57.6587 212.595 57.5847 212.761 57.4367C212.931 57.2886 213.016 57.0846 213.016 56.8246V56.5754C212.908 56.626 212.752 56.6675 212.55 56.7ZM216.319 57.0196H216.763C216.741 57.341 216.619 57.5956 216.395 57.7833C216.171 57.9675 215.9 58.0596 215.582 58.0596C215.207 58.0596 214.9 57.9368 214.661 57.6912C214.423 57.4457 214.304 57.099 214.304 56.6512C214.304 56.1999 214.425 55.8478 214.667 55.595C214.912 55.3386 215.234 55.2104 215.631 55.2104C215.963 55.2104 216.232 55.3007 216.438 55.4812C216.648 55.6582 216.758 55.9019 216.769 56.2125H216.33C216.319 56.0283 216.249 55.8803 216.119 55.7683C215.992 55.6564 215.822 55.6004 215.609 55.6004C215.349 55.6004 215.142 55.6889 214.986 55.8658C214.835 56.0428 214.759 56.2956 214.759 56.6242C214.759 56.9564 214.837 57.211 214.992 57.3879C215.151 57.5649 215.351 57.6533 215.593 57.6533C215.795 57.6533 215.965 57.5956 216.102 57.48C216.24 57.3608 216.312 57.2074 216.319 57.0196ZM217.596 54.6417V54.1H218.099V54.6417H217.596ZM217.623 58V55.2592H218.072V58H217.623ZM221.198 55.6004C221.443 55.8568 221.566 56.2017 221.566 56.635C221.566 57.0683 221.443 57.415 221.198 57.675C220.952 57.9314 220.634 58.0596 220.244 58.0596C219.854 58.0596 219.537 57.9296 219.291 57.6696C219.049 57.4096 218.928 57.0647 218.928 56.635C218.928 56.2053 219.049 55.8604 219.291 55.6004C219.537 55.3404 219.854 55.2104 220.244 55.2104C220.634 55.2104 220.952 55.3404 221.198 55.6004ZM220.867 55.8929C220.709 55.7124 220.499 55.6221 220.239 55.6221C219.979 55.6221 219.771 55.7142 219.616 55.8983C219.464 56.0789 219.389 56.3244 219.389 56.635C219.389 56.9528 219.466 57.2019 219.622 57.3825C219.78 57.5594 219.992 57.6479 220.255 57.6479C220.515 57.6479 220.721 57.5576 220.873 57.3771C221.028 57.1929 221.106 56.9456 221.106 56.635C221.106 56.3172 221.026 56.0699 220.867 55.8929ZM224.734 56.1421V58H224.285V56.1854C224.285 56.0157 224.232 55.8785 224.128 55.7737C224.023 55.669 223.877 55.6167 223.689 55.6167C223.443 55.6167 223.247 55.7051 223.099 55.8821C222.954 56.0554 222.882 56.2937 222.882 56.5971V58H222.432V55.2592H222.877V55.7358C223.061 55.3856 223.359 55.2104 223.77 55.2104C224.063 55.2104 224.296 55.2935 224.469 55.4596C224.646 55.6257 224.734 55.8532 224.734 56.1421ZM227.854 56.0825V58H227.415V57.5558C227.209 57.8917 226.886 58.0596 226.445 58.0596C226.189 58.0596 225.979 57.9892 225.817 57.8483C225.654 57.7039 225.573 57.5089 225.573 57.2633C225.573 56.9817 225.656 56.7867 225.822 56.6783C225.996 56.5664 226.189 56.4924 226.402 56.4562L226.944 56.3642C227.117 56.3317 227.238 56.2919 227.306 56.245C227.375 56.1944 227.409 56.1132 227.409 56.0012C227.409 55.7376 227.223 55.6058 226.851 55.6058C226.436 55.6058 226.191 55.7665 226.115 56.0879H225.66C225.7 55.8135 225.83 55.5986 226.05 55.4433C226.27 55.2881 226.545 55.2104 226.873 55.2104C227.527 55.2104 227.854 55.5011 227.854 56.0825ZM226.938 56.7L226.608 56.7542C226.406 56.7867 226.257 56.8354 226.164 56.9004C226.073 56.9654 226.028 57.0737 226.028 57.2254C226.028 57.5143 226.198 57.6587 226.537 57.6587C226.779 57.6587 226.983 57.5847 227.149 57.4367C227.319 57.2886 227.404 57.0846 227.404 56.8246V56.5754C227.296 56.626 227.14 56.6675 226.938 56.7ZM229.331 54.1487V58H228.882V54.1487H229.331ZM187.882 61.1487V65H187.448V64.4637C187.289 64.861 186.977 65.0596 186.511 65.0596C186.125 65.0596 185.822 64.9224 185.601 64.6479C185.381 64.3699 185.271 64.0322 185.271 63.635C185.271 63.2414 185.381 62.9056 185.601 62.6275C185.825 62.3494 186.13 62.2104 186.517 62.2104C186.954 62.2104 187.259 62.3765 187.432 62.7087V61.1487H187.882ZM187.421 63.6133C187.421 63.3244 187.349 63.0861 187.205 62.8983C187.057 62.7069 186.845 62.6112 186.571 62.6112C186.293 62.6112 186.083 62.7087 185.943 62.9037C185.802 63.0987 185.731 63.3407 185.731 63.6296C185.731 63.9185 185.802 64.1604 185.943 64.3554C186.083 64.5468 186.291 64.6425 186.565 64.6425C186.843 64.6425 187.055 64.5432 187.199 64.3446C187.347 64.1424 187.421 63.8986 187.421 63.6133ZM191.225 63.7433H189.188C189.195 64.0322 189.277 64.2579 189.432 64.4204C189.587 64.5793 189.791 64.6587 190.044 64.6587C190.217 64.6587 190.367 64.619 190.494 64.5396C190.624 64.4565 190.712 64.3446 190.759 64.2037H191.203C191.131 64.4854 190.986 64.6985 190.77 64.8429C190.549 64.9874 190.3 65.0596 190.022 65.0596C189.661 65.0596 189.358 64.935 189.112 64.6858C188.87 64.4367 188.749 64.0846 188.749 63.6296C188.749 63.1746 188.87 62.8243 189.112 62.5787C189.358 62.3332 189.663 62.2104 190.028 62.2104C190.378 62.2104 190.665 62.326 190.889 62.5571C191.113 62.7846 191.225 63.1096 191.225 63.5321V63.7433ZM189.199 63.3804H190.775C190.775 63.1457 190.705 62.9579 190.564 62.8171C190.427 62.6726 190.244 62.6004 190.017 62.6004C189.793 62.6004 189.607 62.6672 189.459 62.8008C189.314 62.9308 189.228 63.124 189.199 63.3804ZM194.029 61.1487V65H193.579V61.1487H194.029ZM197.175 63.0825V65H196.737V64.5558C196.531 64.8917 196.208 65.0596 195.767 65.0596C195.511 65.0596 195.301 64.9892 195.139 64.8483C194.976 64.7039 194.895 64.5089 194.895 64.2633C194.895 63.9817 194.978 63.7867 195.144 63.6783C195.317 63.5664 195.511 63.4924 195.724 63.4562L196.265 63.3642C196.439 63.3317 196.56 63.2919 196.628 63.245C196.697 63.1944 196.731 63.1132 196.731 63.0012C196.731 62.7376 196.545 62.6058 196.173 62.6058C195.758 62.6058 195.512 62.7665 195.437 63.0879H194.982C195.021 62.8135 195.151 62.5986 195.372 62.4433C195.592 62.2881 195.866 62.2104 196.195 62.2104C196.849 62.2104 197.175 62.5011 197.175 63.0825ZM196.26 63.7L195.93 63.7542C195.727 63.7867 195.579 63.8354 195.485 63.9004C195.395 63.9654 195.35 64.0737 195.35 64.2254C195.35 64.5143 195.52 64.6587 195.859 64.6587C196.101 64.6587 196.305 64.5847 196.471 64.4367C196.641 64.2886 196.726 64.0846 196.726 63.8246V63.5754C196.617 63.626 196.462 63.6675 196.26 63.7ZM203.382 61.2083V65H202.927V61.8692L201.735 65H201.383L200.191 61.8692V65H199.747V61.2083H200.413L201.562 64.2579L202.721 61.2083H203.382ZM206.72 62.2592V65H206.281V64.5179C206.101 64.861 205.814 65.0325 205.42 65.0325C205.146 65.0325 204.918 64.9458 204.738 64.7725C204.557 64.5992 204.467 64.3572 204.467 64.0467V62.2592H204.916V63.9708C204.916 64.1803 204.971 64.3428 205.079 64.4583C205.191 64.5739 205.337 64.6317 205.518 64.6317C205.727 64.6317 205.904 64.545 206.048 64.3717C206.197 64.1947 206.271 63.9528 206.271 63.6458V62.2592H206.72ZM207.798 61.6417V61.1H208.302V61.6417H207.798ZM207.825 62.2592H208.275V65.2817C208.275 65.5597 208.21 65.7547 208.08 65.8667C207.954 65.9822 207.764 66.04 207.511 66.04H207.316V65.6392H207.462C207.6 65.6392 207.694 65.6103 207.744 65.5525C207.798 65.4947 207.825 65.3972 207.825 65.26V62.2592ZM211.579 63.7433H209.542C209.549 64.0322 209.63 64.2579 209.786 64.4204C209.941 64.5793 210.145 64.6587 210.398 64.6587C210.571 64.6587 210.721 64.619 210.847 64.5396C210.977 64.4565 211.066 64.3446 211.113 64.2037H211.557C211.485 64.4854 211.34 64.6985 211.124 64.8429C210.903 64.9874 210.654 65.0596 210.376 65.0596C210.015 65.0596 209.712 64.935 209.466 64.6858C209.224 64.4367 209.103 64.0846 209.103 63.6296C209.103 63.1746 209.224 62.8243 209.466 62.5787C209.712 62.3332 210.017 62.2104 210.381 62.2104C210.732 62.2104 211.019 62.326 211.243 62.5571C211.467 62.7846 211.579 63.1096 211.579 63.5321V63.7433ZM209.553 63.3804H211.129C211.129 63.1457 211.059 62.9579 210.918 62.8171C210.78 62.6726 210.598 62.6004 210.371 62.6004C210.147 62.6004 209.961 62.6672 209.813 62.8008C209.668 62.9308 209.582 63.124 209.553 63.3804ZM213.857 62.2321V62.66H213.732C213.458 62.66 213.249 62.7376 213.104 62.8929C212.963 63.0482 212.893 63.2757 212.893 63.5754V65H212.443V62.2592H212.887V62.7358C213.025 62.4 213.304 62.2321 213.727 62.2321H213.857Z" fill="white"/>
<path d="M223.008 27.3865H228.844V49H223.996V35.8467L219.272 49H214.98L210.256 35.8467V49H205.47V27.3865H211.337L217.172 42.0219L223.008 27.3865Z" fill="black"/>
<path d="M189.59 38.1749C186.991 38.6142 184.831 40.2251 184.831 43.7763C184.831 49.1946 190.688 50.7322 195.447 50.7322C201.415 50.7322 206.54 48.2793 206.54 42.7146C206.54 39.4197 204.82 37.5159 202.147 36.6007V36.1614C204.087 35.7586 205.991 34.3675 205.991 31.2556C205.991 26.8258 200.609 25.2149 196.07 25.2149C190.908 25.2149 185.929 27.1186 185.929 32.2441C185.929 35.0997 187.21 36.6739 189.59 37.7356V38.1749ZM194.569 39.9688C197.315 40.8475 198.999 41.7261 198.999 43.3003C198.999 45.4969 197.388 46.0095 195.887 46.0095C194.459 46.0095 192.812 45.2407 192.812 42.9708C192.812 41.4698 193.727 40.5912 194.569 39.9688ZM196.875 34.3675C194.496 33.6353 193.287 32.9031 193.287 31.6583C193.287 30.2305 194.313 29.6814 195.667 29.6814C196.839 29.6814 198.083 30.1573 198.083 31.7681C198.083 32.9031 197.607 33.7451 196.875 34.3675Z" fill="white"/>
<path d="M189.59 38.1749L189.756 39.1609L190.59 39.0201V38.1749H189.59ZM202.147 36.6007H201.147V37.3152L201.823 37.5467L202.147 36.6007ZM202.147 36.1614L201.944 35.1822L201.147 35.3476V36.1614H202.147ZM189.59 37.7356H190.59V37.0867L189.997 36.8224L189.59 37.7356ZM194.569 39.9688L194.874 39.0164L194.386 38.8604L193.974 39.1646L194.569 39.9688ZM196.875 34.3675L196.581 35.3232L197.105 35.4845L197.523 35.1294L196.875 34.3675ZM189.423 37.1889C187.979 37.433 186.569 38.0169 185.514 39.1163C184.443 40.2321 183.831 41.7844 183.831 43.7763H185.831C185.831 42.217 186.298 41.1882 186.957 40.5009C187.632 39.7973 188.601 39.3562 189.756 39.1609L189.423 37.1889ZM183.831 43.7763C183.831 46.9422 185.584 48.9831 187.896 50.1749C190.154 51.339 192.988 51.7322 195.447 51.7322V49.7322C193.148 49.7322 190.673 49.3566 188.812 48.3973C187.006 47.4657 185.831 46.0287 185.831 43.7763H183.831ZM195.447 51.7322C198.547 51.7322 201.531 51.0986 203.774 49.6503C206.065 48.1713 207.54 45.8616 207.54 42.7146H205.54C205.54 45.1323 204.453 46.8314 202.689 47.97C200.878 49.1394 198.316 49.7322 195.447 49.7322V51.7322ZM207.54 42.7146C207.54 40.8854 207.059 39.3629 206.141 38.1589C205.228 36.9619 203.945 36.1592 202.471 35.6546L201.823 37.5467C203.022 37.9574 203.935 38.5642 204.551 39.3716C205.161 40.172 205.54 41.2488 205.54 42.7146H207.54ZM203.147 36.6007V36.1614H201.147V36.6007H203.147ZM202.35 37.1405C203.474 36.9074 204.642 36.3769 205.535 35.3986C206.442 34.4054 206.991 33.0298 206.991 31.2556H204.991C204.991 32.5932 204.589 33.4692 204.058 34.0502C203.514 34.6462 202.761 35.0126 201.944 35.1822L202.35 37.1405ZM206.991 31.2556C206.991 28.5369 205.303 26.7413 203.18 25.6796C201.082 24.6306 198.433 24.2149 196.07 24.2149V26.2149C198.246 26.2149 200.558 26.6046 202.286 27.4685C203.988 28.3198 204.991 29.5444 204.991 31.2556H206.991ZM196.07 24.2149C193.391 24.2149 190.656 24.705 188.555 25.9465C186.399 27.2204 184.929 29.2854 184.929 32.2441H186.929C186.929 30.0774 187.948 28.6277 189.572 27.6684C191.251 26.6767 193.587 26.2149 196.07 26.2149V24.2149ZM184.929 32.2441C184.929 33.8269 185.286 35.1477 186.048 36.2357C186.803 37.3153 187.89 38.0721 189.182 38.6488L189.997 36.8224C188.91 36.3374 188.167 35.7762 187.686 35.0894C187.212 34.411 186.929 33.5169 186.929 32.2441H184.929ZM188.59 37.7356V38.1749H190.59V37.7356H188.59ZM194.264 40.9212C195.628 41.3578 196.613 41.7611 197.246 42.1973C197.846 42.6105 197.999 42.9535 197.999 43.3003H199.999C199.999 42.0729 199.309 41.1895 198.381 40.5501C197.486 39.9338 196.255 39.4585 194.874 39.0164L194.264 40.9212ZM197.999 43.3003C197.999 44.1169 197.721 44.462 197.442 44.6526C197.094 44.8898 196.555 45.0095 195.887 45.0095V47.0095C196.72 47.0095 197.736 46.8729 198.569 46.3047C199.471 45.6898 199.999 44.6804 199.999 43.3003H197.999ZM195.887 45.0095C195.333 45.0095 194.807 44.8579 194.441 44.5628C194.111 44.2965 193.812 43.8363 193.812 42.9708H191.812C191.812 44.3752 192.336 45.4343 193.186 46.1199C194.001 46.7767 195.013 47.0095 195.887 47.0095V45.0095ZM193.812 42.9708C193.812 41.9621 194.392 41.3433 195.163 40.773L193.974 39.1646C193.062 39.839 191.812 40.9775 191.812 42.9708H193.812ZM197.169 33.4117C195.996 33.0507 195.232 32.7225 194.772 32.3926C194.359 32.0962 194.287 31.8757 194.287 31.6583H192.287C192.287 32.6856 192.82 33.4537 193.606 34.0176C194.345 34.548 195.375 34.952 196.581 35.3232L197.169 33.4117ZM194.287 31.6583C194.287 31.2131 194.43 31.0378 194.565 30.9375C194.75 30.8 195.101 30.6814 195.667 30.6814V28.6814C194.879 28.6814 194.039 28.8372 193.373 29.3313C192.658 29.8625 192.287 30.6757 192.287 31.6583H194.287ZM195.667 30.6814C196.143 30.6814 196.516 30.7822 196.741 30.9399C196.91 31.0578 197.083 31.2614 197.083 31.7681H199.083C199.083 30.664 198.635 29.8242 197.888 29.3014C197.198 28.8185 196.362 28.6814 195.667 28.6814V30.6814ZM197.083 31.7681C197.083 32.5782 196.761 33.1518 196.228 33.6055L197.523 35.1294C198.453 34.3384 199.083 33.2279 199.083 31.7681H197.083Z" fill="black"/>
<path d="M251.5 74.5C242.7 76.9 232.833 86.8333 229 91.5H347.5L349.5 18L297.5 77C301.5 67 294.5 50.8333 290.5 44C286.333 50.5 276.8 64.5 272 68.5C266 73.5 262.5 71.5 251.5 74.5Z" fill="#B662F3"/>
<path d="M414 69L379 91H414V69Z" fill="#B662F3"/>
<path d="M19.5 62L0 8.5V49.5L19.5 62Z" fill="#B662F3"/>
</g>
<defs>
<clipPath id="clip0_844_127454">
<rect width="414" height="91" fill="white"/>
</clipPath>
</defs>
</svg>
